<svg id="icon-logo-mmartan-small" viewBox="0 0 133 32" width="100%" height="100%">
<title>logo-mmartan-small</title>
<path d="M0.233 9.079c0-2.213-0.107-5.147-0.233-7.365h8.562c0.117 1.618 0.233 3.173 0.233 4.793 3.582-4.137 7.154-5.936 12.251-5.936 5.63 0 10.149 2.334 12.549 6.649 3.223-5.033 8.151-6.649 12.96-6.649 5.566 0 13.95 2.336 13.95 13.602v17.616h-8.91v-15.936c0-7.433-3.339-9.173-7.623-9.173-4.631 0-9.143 3.298-9.143 10.608v14.501h-8.914v-15.936c0-7.433-3.342-9.173-7.623-9.173-4.631 0-9.143 3.298-9.143 10.608v14.501h-8.914v-22.711zM70.238 9.079c0-2.213-0.119-5.15-0.235-7.365h8.562c0.119 1.618 0.229 3.173 0.229 4.793 3.582-4.137 7.157-5.936 12.258-5.936 5.627 0 10.139 2.334 12.549 6.649 3.221-5.033 8.144-6.649 12.953-6.649 5.568 0 13.95 2.336 13.95 13.602v17.616h-8.905v-15.936c0-7.433-3.349-9.173-7.63-9.173-4.626 0-9.143 3.298-9.143 10.608v14.501h-8.91v-15.936c0-7.433-3.339-9.173-7.621-9.173-4.633 0-9.147 3.298-9.147 10.608v14.501h-8.907v-22.711z"></path>
</svg>